<?xml version="1.0" encoding="UTF-8" standalone="no"?>
<!-- Uploaded to: SVG Repo, www.svgrepo.com, Transformed by: SVG Repo Mixer Tools -->

<svg
   width="698.67999"
   height="532"
   viewBox="0 0 20.9604 15.96"
   fill="none"
   stroke="#ffffff"
   version="1.1"
   id="svg8"
   sodipodi:docname="face-lines.svg"
   xmlns:inkscape="http://www.inkscape.org/namespaces/inkscape"
   xmlns:sodipodi="http://sodipodi.sourceforge.net/DTD/sodipodi-0.dtd"
   xmlns="http://www.w3.org/2000/svg"
   xmlns:svg="http://www.w3.org/2000/svg">
  <defs
     id="defs8" />
  <sodipodi:namedview
     id="namedview8"
     pagecolor="#ffffff"
     bordercolor="#000000"
     borderopacity="0.25"
     inkscape:showpageshadow="2"
     inkscape:pageopacity="0.0"
     inkscape:pagecheckerboard="0"
     inkscape:deskcolor="#d1d1d1">
    <inkscape:page
       x="0"
       y="0"
       width="20.9604"
       height="15.96"
       id="page1"
       margin="0"
       bleed="0" />
  </sodipodi:namedview>
  <g
     id="SVGRepo_iconCarrier"
     transform="translate(-1.52,-4.52)">
    <path
       d="m 19.0993,10.6602 c 1.112,1.3142 0.8807,2.9213 0.8808,4.3398 0,3.9062 -5.2669,5 -7.9801,5 -2.71323,0 -7.98006,-1.0938 -7.98006,-5 10e-6,-1.4185 -0.23119,-3.0256 0.88072,-4.3398 m 14.19864,0 C 18.9048,10.4303 18.6692,10.2094 18.384,10 m 0.7153,0.6602 c 0.7,0.4032 0.8788,-1.10551 0.8808,-1.5977 V 7.18761 c 0,-1.625 -1.1172,-2.1875 -2.0748,-2.1875 -0.9576,0 -2.8729,1.56239 -3.5113,1.56239 -0.7661,0 -0.9136,-0.15614 -2.394,-0.15614 -1.4803,0 -1.6279,0.15614 -2.39399,0.15614 C 8.9676,6.5625 7.05236,5 6.09476,5 5.13715,5 4.01995,5.5625 4.01995,7.1875 v 1.875 c 0.00193,0.49219 0.18077,2.0009 0.88071,1.5977 m 0,0 C 5.09519,10.4303 5.33082,10.2094 5.61599,10"
       stroke="#ffffff"
       stroke-width="0.96"
       stroke-linecap="round"
       id="path1" />
    <path
       d="m 12.8258,16 c 0,0.1726 -0.3611,0.3125 -0.8065,0.3125 -0.4453,0 -0.8064,-0.1399 -0.8064,-0.3125 0,-0.1726 0.3611,-0.3125 0.8064,-0.3125 0.4454,0 0.8065,0.1399 0.8065,0.3125 z"
       stroke="#ffffff"
       stroke-width="0.96"
       id="path2" />
    <path
       d="m 15.5,13.5938 c 0,0.4314 -0.2166,0.7812 -0.4839,0.7812 -0.2672,0 -0.4838,-0.3498 -0.4838,-0.7812 0,-0.4315 0.2166,-0.7813 0.4838,-0.7813 0.2673,0 0.4839,0.3498 0.4839,0.7813 z"
       stroke="#ffffff"
       stroke-width="0.96"
       id="path3" />
    <path
       d="m 9.5,13.5938 c 0,0.4314 -0.21664,0.7812 -0.48387,0.7812 -0.26724,0 -0.48387,-0.3498 -0.48387,-0.7812 0,-0.4315 0.21663,-0.7813 0.48387,-0.7813 0.26723,0 0.48387,0.3498 0.48387,0.7813 z"
       stroke="#ffffff"
       stroke-width="0.96"
       id="path4" />
    <path
       d="M 22.0004,15.4688 C 21.5165,15.1562 19.4197,14.375 18.6133,14.375"
       stroke="#ffffff"
       stroke-width="0.96"
       stroke-linecap="round"
       id="path5" />
    <path
       d="M 20.3871,17.9688 C 19.9033,17.6562 18.7742,16.875 17.9678,16.875"
       stroke="#ffffff"
       stroke-width="0.96"
       stroke-linecap="round"
       id="path6" />
    <path
       d="M 2,15.4688 C 2.48387,15.1562 4.58065,14.375 5.3871,14.375"
       stroke="#ffffff"
       stroke-width="0.96"
       stroke-linecap="round"
       id="path7" />
    <path
       d="M 3.61279,17.9688 C 4.09667,17.6562 5.2257,16.875 6.03215,16.875"
       stroke="#ffffff"
       stroke-width="0.96"
       stroke-linecap="round"
       id="path8" />
  </g>
</svg>
