<?xml version="1.0" encoding="UTF-8" standalone="no"?>
<!-- Uploaded to: SVG Repo, www.svgrepo.com, Transformed by: SVG Repo Mixer Tools -->

<svg
   width="181.33333"
   height="192"
   viewBox="0 0 17 18"
   data-name="Layer 1"
   id="Layer_1"
   fill="#ffffff"
   version="1.1"
   sodipodi:docname="silhouette-filled.svg"
   xmlns:inkscape="http://www.inkscape.org/namespaces/inkscape"
   xmlns:sodipodi="http://sodipodi.sourceforge.net/DTD/sodipodi-0.dtd"
   xmlns="http://www.w3.org/2000/svg"
   xmlns:svg="http://www.w3.org/2000/svg">
  <defs
     id="defs8" />
  <sodipodi:namedview
     id="namedview8"
     pagecolor="#ffffff"
     bordercolor="#000000"
     borderopacity="0.25"
     inkscape:showpageshadow="2"
     inkscape:pageopacity="0.0"
     inkscape:pagecheckerboard="0"
     inkscape:deskcolor="#d1d1d1">
    <inkscape:page
       x="0"
       y="0"
       width="17"
       height="18"
       id="page2"
       margin="0"
       bleed="0" />
  </sodipodi:namedview>
  <g
     id="SVGRepo_iconCarrier"
     transform="translate(-3.9999999,-4)">
    <title
       id="title1" />
    <path
       d="M 16,7 13,9 V 5.2071 a 0.5,0.5 0 0 1 0.8536,-0.3535 z"
       style="fill:#ff888b"
       id="path1" />
    <path
       d="m 18,7 3,2 V 5.2071 A 0.5,0.5 0 0 0 20.1464,4.8536 Z"
       style="fill:#ff888b"
       id="path2" />
    <path
       d="M 6,13 H 4 V 5 A 1,1 0 0 1 5,4 v 0 a 1,1 0 0 1 1,1 z"
       id="path3" />
    <path
       d="m 5.5,22 v 0 A 1.5,1.5 0 0 1 4,20.5 V 13 h 3 v 7.5 A 1.5,1.5 0 0 1 5.5,22 Z"
       id="path4" />
    <path
       d="m 15.5,22 v 0 A 1.5,1.5 0 0 1 14,20.5 V 13 h 3 v 7.5 A 1.5,1.5 0 0 1 15.5,22 Z"
       id="path5" />
    <path
       d="M 17,19 C 14,15 7,15 4,19 V 12 C 7,8 14,8 17,12 Z"
       id="path6" />
    <path
       d="m 17,14 v 0 A 4,4 0 0 1 13,10 V 7 h 8 v 3 a 4.00005,4.00005 0 0 1 -4,4 z"
       id="path7" />
    <circle
       cx="15.25"
       cy="9.75"
       r="0.75"
       style="fill:#000000"
       id="circle7" />
    <circle
       cx="19"
       cy="9.75"
       r="0.75"
       style="fill:#000000"
       id="circle8" />
  </g>
</svg>
